<mxfile host="Electron" agent="Mozilla/5.0 (Windows NT 10.0; Win64; x64) AppleWebKit/537.36 (KHTML, like Gecko) draw.io/24.7.17 Chrome/128.0.6613.36 Electron/32.0.1 Safari/537.36" version="24.7.17">
  <diagram name="Page-1" id="-hfQYTGBIGC2IBwUTKeI">
    <mxGraphModel dx="873" dy="824" grid="1" gridSize="10" guides="0" tooltips="1" connect="1" arrows="0" fold="1" page="0" pageScale="1" pageWidth="827" pageHeight="1169" math="0" shadow="0">
      <root>
        <mxCell id="0" />
        <mxCell id="1" value="Hexagon" style="locked=1;" parent="0" />
        <mxCell id="qZ0eZMEyJfM4uQIMgLbZ-5" value="" style="group;movable=1;resizable=1;rotatable=1;deletable=1;editable=1;locked=0;connectable=1;cloneable=0;" parent="1" vertex="1" connectable="0">
          <mxGeometry x="-140" y="240" width="1520" height="560" as="geometry" />
        </mxCell>
        <mxCell id="WYxq5w56mi98Xdl97QRf-30" value="&lt;b&gt;External System Adapters&lt;/b&gt;" style="html=1;whiteSpace=wrap;rounded=1;horizontal=1;verticalAlign=top;movable=1;cloneable=0;deletable=1;connectable=1;allowArrows=0;resizable=1;rotatable=1;recursiveResize=0;expand=0;container=1;collapsible=0;dropTarget=1;editable=1;locked=0;" parent="qZ0eZMEyJfM4uQIMgLbZ-5" vertex="1">
          <mxGeometry x="1260" y="320" width="260" height="200" as="geometry" />
        </mxCell>
        <mxCell id="WYxq5w56mi98Xdl97QRf-29" value="&lt;b&gt;Persistence Adapters&lt;/b&gt;" style="html=1;whiteSpace=wrap;rounded=1;horizontal=1;verticalAlign=top;movable=1;cloneable=0;deletable=1;connectable=1;allowArrows=0;resizable=1;rotatable=1;recursiveResize=0;expand=0;container=1;collapsible=0;dropTarget=1;editable=1;locked=0;" parent="qZ0eZMEyJfM4uQIMgLbZ-5" vertex="1">
          <mxGeometry x="1260" y="40" width="260" height="200" as="geometry" />
        </mxCell>
        <mxCell id="WYxq5w56mi98Xdl97QRf-25" value="&lt;b&gt;Web Adapters&lt;/b&gt;" style="html=1;whiteSpace=wrap;rounded=1;horizontal=1;verticalAlign=top;movable=1;cloneable=0;deletable=1;connectable=1;allowArrows=0;resizable=1;rotatable=1;container=1;collapsible=0;recursiveResize=0;expand=0;dropTarget=1;editable=1;locked=0;" parent="qZ0eZMEyJfM4uQIMgLbZ-5" vertex="1">
          <mxGeometry y="40" width="260" height="200" as="geometry" />
        </mxCell>
        <mxCell id="jC72QDiSUMgHh-S-kuxz-1" value="" style="shape=hexagon;perimeter=hexagonPerimeter2;whiteSpace=wrap;html=1;fixedSize=1;size=150;strokeWidth=2;fillColor=none;recursiveResize=0;connectable=1;editable=1;movable=1;resizable=1;rotatable=1;deletable=1;locked=0;allowArrows=0;cloneable=0;pointerEvents=0;expand=0;" parent="qZ0eZMEyJfM4uQIMgLbZ-5" vertex="1">
          <mxGeometry x="340" width="840" height="560" as="geometry" />
        </mxCell>
        <mxCell id="WYxq5w56mi98Xdl97QRf-21" value="" style="group;movable=1;cloneable=0;deletable=1;editable=1;resizable=1;rotatable=1;locked=0;connectable=1;" parent="qZ0eZMEyJfM4uQIMgLbZ-5" vertex="1" connectable="0">
          <mxGeometry x="500" y="380" width="80" height="80" as="geometry" />
        </mxCell>
        <mxCell id="WYxq5w56mi98Xdl97QRf-18" value="Application" style="text;html=1;align=center;verticalAlign=bottom;whiteSpace=wrap;rounded=0;horizontal=0;movable=1;cloneable=0;deletable=1;editable=1;resizable=1;rotatable=1;locked=0;connectable=1;" parent="WYxq5w56mi98Xdl97QRf-21" vertex="1">
          <mxGeometry width="40" height="80" as="geometry" />
        </mxCell>
        <mxCell id="WYxq5w56mi98Xdl97QRf-19" value="Domain" style="text;html=1;align=center;verticalAlign=top;whiteSpace=wrap;rounded=0;horizontal=0;movable=1;cloneable=0;deletable=1;editable=1;resizable=1;rotatable=1;locked=0;connectable=1;" parent="WYxq5w56mi98Xdl97QRf-21" vertex="1">
          <mxGeometry x="40" width="40" height="80" as="geometry" />
        </mxCell>
        <mxCell id="WYxq5w56mi98Xdl97QRf-17" value="" style="rounded=1;whiteSpace=wrap;html=1;fillColor=none;dashed=1;container=1;collapsible=0;recursiveResize=0;movable=1;cloneable=0;deletable=1;connectable=1;allowArrows=0;dropTarget=0;resizable=1;rotatable=1;pointerEvents=0;expand=0;editable=1;locked=0;" parent="qZ0eZMEyJfM4uQIMgLbZ-5" vertex="1">
          <mxGeometry x="540" y="300" width="440" height="240" as="geometry" />
        </mxCell>
        <mxCell id="WYxq5w56mi98Xdl97QRf-14" value="&lt;b&gt;Entities&lt;/b&gt;" style="rounded=1;whiteSpace=wrap;html=1;verticalAlign=top;container=1;recursiveResize=0;autosize=0;rotatable=1;deletable=1;collapsible=0;movable=1;cloneable=0;connectable=1;allowArrows=0;resizable=1;dropTarget=1;editable=1;locked=0;" parent="WYxq5w56mi98Xdl97QRf-17" vertex="1">
          <mxGeometry x="40" y="20" width="160" height="200" as="geometry">
            <mxRectangle x="400" y="220" width="80" height="30" as="alternateBounds" />
          </mxGeometry>
        </mxCell>
        <mxCell id="WYxq5w56mi98Xdl97QRf-15" value="&lt;b&gt;Value Objects&lt;/b&gt;" style="rounded=1;whiteSpace=wrap;html=1;verticalAlign=top;container=1;recursiveResize=0;autosize=0;rotatable=1;deletable=1;collapsible=0;movable=1;cloneable=0;connectable=1;allowArrows=0;resizable=1;expand=0;dropTarget=1;editable=1;locked=0;" parent="WYxq5w56mi98Xdl97QRf-17" vertex="1">
          <mxGeometry x="240" y="20" width="160" height="200" as="geometry">
            <mxRectangle x="400" y="220" width="80" height="30" as="alternateBounds" />
          </mxGeometry>
        </mxCell>
        <mxCell id="WYxq5w56mi98Xdl97QRf-28" value="&lt;b&gt;Output Ports&lt;/b&gt;" style="html=1;whiteSpace=wrap;rounded=1;horizontal=1;verticalAlign=top;movable=1;cloneable=0;deletable=1;connectable=1;allowArrows=0;resizable=1;rotatable=1;recursiveResize=0;expand=0;container=1;dropTarget=1;collapsible=0;editable=1;locked=0;" parent="qZ0eZMEyJfM4uQIMgLbZ-5" vertex="1">
          <mxGeometry x="1020" y="320" width="160" height="200" as="geometry" />
        </mxCell>
        <mxCell id="WYxq5w56mi98Xdl97QRf-27" value="&lt;b&gt;Output Ports&lt;/b&gt;" style="html=1;whiteSpace=wrap;rounded=1;horizontal=1;verticalAlign=top;movable=1;cloneable=0;deletable=1;connectable=1;allowArrows=0;resizable=1;rotatable=1;dropTarget=1;expand=0;recursiveResize=0;container=1;collapsible=0;editable=1;locked=0;" parent="qZ0eZMEyJfM4uQIMgLbZ-5" vertex="1">
          <mxGeometry x="1020" y="40" width="160" height="200" as="geometry" />
        </mxCell>
        <mxCell id="WYxq5w56mi98Xdl97QRf-26" value="&lt;b&gt;Input Ports&lt;/b&gt;" style="html=1;whiteSpace=wrap;rounded=1;horizontal=1;verticalAlign=top;movable=1;cloneable=0;deletable=1;connectable=1;allowArrows=0;resizable=1;rotatable=1;container=1;collapsible=0;recursiveResize=0;expand=0;dropTarget=1;editable=1;locked=0;" parent="qZ0eZMEyJfM4uQIMgLbZ-5" vertex="1">
          <mxGeometry x="340" y="40" width="160" height="200" as="geometry" />
        </mxCell>
        <mxCell id="WYxq5w56mi98Xdl97QRf-33" value="" style="endArrow=block;html=1;rounded=0;strokeWidth=2;endFill=1;exitX=1;exitY=0.5;exitDx=0;exitDy=0;entryX=0;entryY=0.5;entryDx=0;entryDy=0;movable=1;cloneable=0;deletable=1;editable=1;resizable=1;rotatable=1;locked=0;connectable=1;" parent="qZ0eZMEyJfM4uQIMgLbZ-5" source="WYxq5w56mi98Xdl97QRf-25" target="WYxq5w56mi98Xdl97QRf-26" edge="1">
          <mxGeometry width="50" height="50" relative="1" as="geometry">
            <mxPoint x="200" y="420" as="sourcePoint" />
            <mxPoint x="230" y="360" as="targetPoint" />
          </mxGeometry>
        </mxCell>
        <mxCell id="WYxq5w56mi98Xdl97QRf-34" value="" style="endArrow=block;html=1;rounded=0;strokeWidth=2;endFill=1;entryX=0;entryY=0.5;entryDx=0;entryDy=0;exitX=1;exitY=0.5;exitDx=0;exitDy=0;movable=1;cloneable=0;deletable=1;editable=1;resizable=1;rotatable=1;locked=0;connectable=1;" parent="qZ0eZMEyJfM4uQIMgLbZ-5" source="jC72QDiSUMgHh-S-kuxz-7" target="WYxq5w56mi98Xdl97QRf-27" edge="1">
          <mxGeometry width="50" height="50" relative="1" as="geometry">
            <mxPoint x="1090" y="-50" as="sourcePoint" />
            <mxPoint x="1170" y="-50" as="targetPoint" />
          </mxGeometry>
        </mxCell>
        <mxCell id="WYxq5w56mi98Xdl97QRf-35" value="" style="endArrow=block;html=1;rounded=0;strokeWidth=2;endFill=1;entryX=-0.016;entryY=0.205;entryDx=0;entryDy=0;exitX=1;exitY=0.75;exitDx=0;exitDy=0;entryPerimeter=0;movable=1;cloneable=0;deletable=1;editable=1;resizable=1;rotatable=1;locked=0;connectable=1;" parent="qZ0eZMEyJfM4uQIMgLbZ-5" source="jC72QDiSUMgHh-S-kuxz-7" target="WYxq5w56mi98Xdl97QRf-28" edge="1">
          <mxGeometry width="50" height="50" relative="1" as="geometry">
            <mxPoint x="1140" y="-10" as="sourcePoint" />
            <mxPoint x="1030" y="150" as="targetPoint" />
          </mxGeometry>
        </mxCell>
        <mxCell id="jC72QDiSUMgHh-S-kuxz-7" value="&lt;b&gt;Services&lt;/b&gt;" style="rounded=1;whiteSpace=wrap;html=1;verticalAlign=top;container=1;recursiveResize=0;autosize=0;rotatable=1;deletable=1;collapsible=0;dropTarget=1;movable=1;cloneable=0;connectable=1;allowArrows=0;resizable=1;editable=1;locked=0;expand=0;" parent="qZ0eZMEyJfM4uQIMgLbZ-5" vertex="1">
          <mxGeometry x="580" y="40" width="360" height="200" as="geometry">
            <mxRectangle x="400" y="220" width="80" height="30" as="alternateBounds" />
          </mxGeometry>
        </mxCell>
        <mxCell id="WYxq5w56mi98Xdl97QRf-37" value="" style="endArrow=open;html=1;rounded=0;strokeWidth=2;endFill=0;movable=1;cloneable=0;deletable=1;editable=1;resizable=1;rotatable=1;locked=0;connectable=1;exitX=0.5;exitY=1;exitDx=0;exitDy=0;entryX=0.5;entryY=0;entryDx=0;entryDy=0;dashed=1;" parent="qZ0eZMEyJfM4uQIMgLbZ-5" source="jC72QDiSUMgHh-S-kuxz-7" target="WYxq5w56mi98Xdl97QRf-17" edge="1">
          <mxGeometry width="50" height="50" relative="1" as="geometry">
            <mxPoint x="660" y="640" as="sourcePoint" />
            <mxPoint x="690" y="630" as="targetPoint" />
          </mxGeometry>
        </mxCell>
        <mxCell id="WYxq5w56mi98Xdl97QRf-39" value="" style="endArrow=block;html=1;rounded=0;strokeWidth=2;endFill=0;exitX=0;exitY=0.5;exitDx=0;exitDy=0;entryX=1;entryY=0.5;entryDx=0;entryDy=0;movable=1;cloneable=0;deletable=1;editable=1;resizable=1;rotatable=1;locked=0;connectable=1;" parent="qZ0eZMEyJfM4uQIMgLbZ-5" source="WYxq5w56mi98Xdl97QRf-29" target="WYxq5w56mi98Xdl97QRf-27" edge="1">
          <mxGeometry width="50" height="50" relative="1" as="geometry">
            <mxPoint x="1100" y="-80" as="sourcePoint" />
            <mxPoint x="1180" y="-80" as="targetPoint" />
          </mxGeometry>
        </mxCell>
        <mxCell id="WYxq5w56mi98Xdl97QRf-40" value="" style="endArrow=block;html=1;rounded=0;strokeWidth=2;endFill=0;exitX=0;exitY=0.5;exitDx=0;exitDy=0;entryX=1;entryY=0.5;entryDx=0;entryDy=0;movable=1;cloneable=0;deletable=1;editable=1;resizable=1;rotatable=1;locked=0;connectable=1;" parent="qZ0eZMEyJfM4uQIMgLbZ-5" source="WYxq5w56mi98Xdl97QRf-30" target="WYxq5w56mi98Xdl97QRf-28" edge="1">
          <mxGeometry width="50" height="50" relative="1" as="geometry">
            <mxPoint x="1250" y="440" as="sourcePoint" />
            <mxPoint x="1170" y="440" as="targetPoint" />
          </mxGeometry>
        </mxCell>
        <mxCell id="WYxq5w56mi98Xdl97QRf-41" value="" style="endArrow=block;html=1;rounded=0;strokeWidth=2;endFill=0;exitX=0;exitY=0.5;exitDx=0;exitDy=0;entryX=1;entryY=0.5;entryDx=0;entryDy=0;movable=1;cloneable=0;deletable=1;editable=1;resizable=1;rotatable=1;locked=0;connectable=1;" parent="qZ0eZMEyJfM4uQIMgLbZ-5" source="jC72QDiSUMgHh-S-kuxz-7" target="WYxq5w56mi98Xdl97QRf-26" edge="1">
          <mxGeometry width="50" height="50" relative="1" as="geometry">
            <mxPoint x="570" y="130" as="sourcePoint" />
            <mxPoint x="490" y="130" as="targetPoint" />
          </mxGeometry>
        </mxCell>
        <mxCell id="V0stDjDbs2elNwU-6sQ3-3" value="&lt;font style=&quot;font-size: 33px; font-style: normal;&quot;&gt;INPUTS&lt;/font&gt;" style="text;html=1;align=center;verticalAlign=middle;whiteSpace=wrap;rounded=0;fontStyle=3;fontColor=#999999;labelBackgroundColor=none;textShadow=0;" parent="qZ0eZMEyJfM4uQIMgLbZ-5" vertex="1">
          <mxGeometry x="100" y="240" width="200" height="80" as="geometry" />
        </mxCell>
        <mxCell id="V0stDjDbs2elNwU-6sQ3-4" value="&lt;font style=&quot;font-size: 33px; font-style: normal;&quot;&gt;OUTPUTS&lt;/font&gt;" style="text;html=1;align=center;verticalAlign=middle;whiteSpace=wrap;rounded=0;fontStyle=3;fontColor=#999999;labelBackgroundColor=none;textShadow=0;" parent="qZ0eZMEyJfM4uQIMgLbZ-5" vertex="1">
          <mxGeometry x="1220" y="240" width="200" height="80" as="geometry" />
        </mxCell>
        <mxCell id="qZ0eZMEyJfM4uQIMgLbZ-8" value="Classes" style="" parent="0" />
        <mxCell id="qZ0eZMEyJfM4uQIMgLbZ-9" value="«interface»&lt;br&gt;&lt;b&gt;EnsembleRepository&lt;/b&gt;" style="html=1;whiteSpace=wrap;connectable=1;allowArrows=1;expand=0;resizable=0;deletable=0;rotatable=0;snapToPoint=0;" parent="qZ0eZMEyJfM4uQIMgLbZ-8" vertex="1">
          <mxGeometry x="890" y="320" width="140" height="40" as="geometry" />
        </mxCell>
        <mxCell id="qZ0eZMEyJfM4uQIMgLbZ-10" value="«interface»&lt;br&gt;&lt;b&gt;Notifier&lt;/b&gt;" style="html=1;whiteSpace=wrap;connectable=1;allowArrows=1;expand=0;resizable=0;deletable=0;rotatable=0;snapToPoint=0;" parent="qZ0eZMEyJfM4uQIMgLbZ-8" vertex="1">
          <mxGeometry x="900" y="630" width="120" height="40" as="geometry" />
        </mxCell>
        <mxCell id="qZ0eZMEyJfM4uQIMgLbZ-11" value="&lt;div&gt;&lt;b style=&quot;background-color: initial;&quot;&gt;MailNotifier&lt;/b&gt;&lt;br&gt;&lt;/div&gt;" style="html=1;whiteSpace=wrap;connectable=1;allowArrows=1;expand=0;resizable=0;deletable=0;rotatable=0;snapToPoint=0;" parent="qZ0eZMEyJfM4uQIMgLbZ-8" vertex="1">
          <mxGeometry x="1180" y="670" width="140" height="40" as="geometry" />
        </mxCell>
        <mxCell id="qZ0eZMEyJfM4uQIMgLbZ-12" value="&lt;div&gt;&lt;b&gt;MemberController&lt;/b&gt;&lt;/div&gt;" style="html=1;whiteSpace=wrap;connectable=1;allowArrows=1;expand=0;resizable=0;deletable=0;rotatable=0;snapToPoint=0;" parent="qZ0eZMEyJfM4uQIMgLbZ-8" vertex="1">
          <mxGeometry x="-70" y="320" width="120" height="40" as="geometry" />
        </mxCell>
        <mxCell id="qZ0eZMEyJfM4uQIMgLbZ-13" value="&lt;b&gt;Ensemble&lt;/b&gt;" style="html=1;whiteSpace=wrap;connectable=1;allowArrows=1;expand=0;resizable=1;deletable=0;rotatable=0;snapToPoint=0;" parent="qZ0eZMEyJfM4uQIMgLbZ-8" vertex="1">
          <mxGeometry x="480" y="620" width="80" height="40" as="geometry" />
        </mxCell>
        <mxCell id="qZ0eZMEyJfM4uQIMgLbZ-16" value="&lt;b&gt;EnsembleService&lt;/b&gt;" style="html=1;whiteSpace=wrap;connectable=1;allowArrows=1;expand=0;resizable=0;deletable=0;rotatable=0;snapToPoint=0;" parent="qZ0eZMEyJfM4uQIMgLbZ-8" vertex="1">
          <mxGeometry x="560" y="320" width="120" height="40" as="geometry" />
        </mxCell>
        <mxCell id="qZ0eZMEyJfM4uQIMgLbZ-18" value="&lt;b&gt;EnsembleState&lt;/b&gt;" style="html=1;whiteSpace=wrap;connectable=1;allowArrows=1;expand=0;resizable=1;deletable=0;rotatable=0;snapToPoint=0;" parent="qZ0eZMEyJfM4uQIMgLbZ-8" vertex="1">
          <mxGeometry x="660" y="620" width="120" height="40" as="geometry" />
        </mxCell>
        <mxCell id="qZ0eZMEyJfM4uQIMgLbZ-20" value="" style="endArrow=block;html=1;rounded=0;strokeWidth=1;endFill=1;movable=1;cloneable=0;deletable=1;editable=1;resizable=1;rotatable=1;locked=0;connectable=1;exitX=1;exitY=0.5;exitDx=0;exitDy=0;entryX=0;entryY=0.5;entryDx=0;entryDy=0;" parent="qZ0eZMEyJfM4uQIMgLbZ-8" target="qZ0eZMEyJfM4uQIMgLbZ-9" edge="1">
          <mxGeometry width="50" height="50" relative="1" as="geometry">
            <mxPoint x="680" y="340" as="sourcePoint" />
            <mxPoint x="850" y="220" as="targetPoint" />
          </mxGeometry>
        </mxCell>
        <mxCell id="qZ0eZMEyJfM4uQIMgLbZ-22" value="" style="endArrow=block;html=1;rounded=0;strokeWidth=1;endFill=1;movable=1;cloneable=0;deletable=1;editable=1;resizable=1;rotatable=1;locked=0;connectable=1;exitX=1;exitY=0.5;exitDx=0;exitDy=0;" parent="qZ0eZMEyJfM4uQIMgLbZ-8" source="qZ0eZMEyJfM4uQIMgLbZ-13" target="qZ0eZMEyJfM4uQIMgLbZ-18" edge="1">
          <mxGeometry width="50" height="50" relative="1" as="geometry">
            <mxPoint x="700" y="840" as="sourcePoint" />
            <mxPoint x="640" y="660" as="targetPoint" />
          </mxGeometry>
        </mxCell>
        <mxCell id="dnlBX8vC30w0LTZ7l3ts-4" value="" style="endArrow=block;html=1;rounded=0;strokeWidth=1;endFill=0;exitX=0;exitY=0.5;exitDx=0;exitDy=0;entryX=0.5;entryY=1;entryDx=0;entryDy=0;movable=1;cloneable=0;deletable=1;editable=1;resizable=1;rotatable=1;locked=0;connectable=1;" parent="qZ0eZMEyJfM4uQIMgLbZ-8" source="qZ0eZMEyJfM4uQIMgLbZ-11" target="qZ0eZMEyJfM4uQIMgLbZ-10" edge="1">
          <mxGeometry width="50" height="50" relative="1" as="geometry">
            <mxPoint x="1160" y="810" as="sourcePoint" />
            <mxPoint x="1080" y="810" as="targetPoint" />
            <Array as="points">
              <mxPoint x="960" y="690" />
            </Array>
          </mxGeometry>
        </mxCell>
        <mxCell id="oSYT8IsLfjzJ3H-LNnot-3" value="«interface»&lt;br&gt;&lt;b&gt;EnsembleJdbcRepository&lt;/b&gt;" style="html=1;whiteSpace=wrap;connectable=1;allowArrows=1;expand=0;resizable=0;deletable=0;rotatable=0;snapToPoint=0;" parent="qZ0eZMEyJfM4uQIMgLbZ-8" vertex="1">
          <mxGeometry x="1170" y="320" width="160" height="40" as="geometry" />
        </mxCell>
        <mxCell id="oSYT8IsLfjzJ3H-LNnot-5" value="&lt;b&gt;EnsembleRepositoryDataJdbcAdapter&lt;/b&gt;" style="html=1;whiteSpace=wrap;connectable=1;allowArrows=1;expand=0;resizable=1;deletable=0;rotatable=0;snapToPoint=0;" parent="qZ0eZMEyJfM4uQIMgLbZ-8" vertex="1">
          <mxGeometry x="1130" y="390" width="240" height="40" as="geometry" />
        </mxCell>
        <mxCell id="oSYT8IsLfjzJ3H-LNnot-8" value="" style="endArrow=block;html=1;rounded=0;strokeWidth=1;endFill=1;entryX=0.5;entryY=1;entryDx=0;entryDy=0;movable=1;cloneable=0;deletable=1;editable=1;resizable=1;rotatable=1;locked=0;connectable=1;exitX=0.5;exitY=0;exitDx=0;exitDy=0;" parent="qZ0eZMEyJfM4uQIMgLbZ-8" source="oSYT8IsLfjzJ3H-LNnot-5" target="oSYT8IsLfjzJ3H-LNnot-3" edge="1">
          <mxGeometry width="50" height="50" relative="1" as="geometry">
            <mxPoint x="1460" y="430" as="sourcePoint" />
            <mxPoint x="1460" y="370" as="targetPoint" />
          </mxGeometry>
        </mxCell>
        <mxCell id="oSYT8IsLfjzJ3H-LNnot-10" value="" style="endArrow=block;html=1;rounded=0;strokeWidth=1;endFill=0;exitX=0;exitY=0.5;exitDx=0;exitDy=0;movable=1;cloneable=0;deletable=1;editable=1;resizable=1;rotatable=1;locked=0;connectable=1;entryX=0.5;entryY=1;entryDx=0;entryDy=0;" parent="qZ0eZMEyJfM4uQIMgLbZ-8" source="oSYT8IsLfjzJ3H-LNnot-5" target="qZ0eZMEyJfM4uQIMgLbZ-9" edge="1">
          <mxGeometry width="50" height="50" relative="1" as="geometry">
            <mxPoint x="1120" y="440" as="sourcePoint" />
            <mxPoint x="900" y="400" as="targetPoint" />
            <Array as="points">
              <mxPoint x="960" y="410" />
            </Array>
          </mxGeometry>
        </mxCell>
        <mxCell id="dIKfFOtkZAm4ROcoIMHW-1" value="" style="endArrow=block;html=1;rounded=0;strokeWidth=1;endFill=1;entryX=0;entryY=0.5;entryDx=0;entryDy=0;movable=1;cloneable=0;deletable=1;editable=1;resizable=1;rotatable=1;locked=0;connectable=1;exitX=1;exitY=0.5;exitDx=0;exitDy=0;" parent="qZ0eZMEyJfM4uQIMgLbZ-8" source="qZ0eZMEyJfM4uQIMgLbZ-12" target="qZ0eZMEyJfM4uQIMgLbZ-16" edge="1">
          <mxGeometry width="50" height="50" relative="1" as="geometry">
            <mxPoint x="70" y="340" as="sourcePoint" />
            <mxPoint x="200" y="340" as="targetPoint" />
          </mxGeometry>
        </mxCell>
        <mxCell id="dIKfFOtkZAm4ROcoIMHW-2" value="adapter.in.web" style="rounded=0;whiteSpace=wrap;html=1;deletable=0;rotatable=0;resizable=0;" parent="qZ0eZMEyJfM4uQIMgLbZ-8" vertex="1">
          <mxGeometry x="-140" y="440" width="260" height="40" as="geometry" />
        </mxCell>
        <mxCell id="dIKfFOtkZAm4ROcoIMHW-3" value="" style="rounded=0;whiteSpace=wrap;html=1;deletable=0;rotatable=0;resizable=0;" parent="qZ0eZMEyJfM4uQIMgLbZ-8" vertex="1">
          <mxGeometry x="200" y="440" width="160" height="40" as="geometry" />
        </mxCell>
        <mxCell id="dIKfFOtkZAm4ROcoIMHW-4" value="" style="rounded=0;whiteSpace=wrap;html=1;deletable=0;rotatable=0;resizable=0;" parent="qZ0eZMEyJfM4uQIMgLbZ-8" vertex="1">
          <mxGeometry x="440" y="440" width="360" height="40" as="geometry" />
        </mxCell>
        <mxCell id="dIKfFOtkZAm4ROcoIMHW-5" value="" style="rounded=0;whiteSpace=wrap;html=1;deletable=0;rotatable=0;resizable=0;" parent="qZ0eZMEyJfM4uQIMgLbZ-8" vertex="1">
          <mxGeometry x="880" y="720" width="160" height="40" as="geometry" />
        </mxCell>
        <mxCell id="dIKfFOtkZAm4ROcoIMHW-7" value="" style="rounded=0;whiteSpace=wrap;html=1;deletable=0;rotatable=0;resizable=0;" parent="qZ0eZMEyJfM4uQIMgLbZ-8" vertex="1">
          <mxGeometry x="880" y="440" width="160" height="40" as="geometry" />
        </mxCell>
        <mxCell id="dIKfFOtkZAm4ROcoIMHW-8" value="" style="rounded=0;whiteSpace=wrap;html=1;deletable=0;rotatable=0;resizable=0;" parent="qZ0eZMEyJfM4uQIMgLbZ-8" vertex="1">
          <mxGeometry x="1120" y="440" width="260" height="40" as="geometry" />
        </mxCell>
        <mxCell id="dIKfFOtkZAm4ROcoIMHW-9" value="" style="rounded=0;whiteSpace=wrap;html=1;deletable=0;rotatable=0;resizable=0;" parent="qZ0eZMEyJfM4uQIMgLbZ-8" vertex="1">
          <mxGeometry x="1120" y="720" width="260" height="40" as="geometry" />
        </mxCell>
        <mxCell id="dIKfFOtkZAm4ROcoIMHW-10" value="" style="rounded=0;whiteSpace=wrap;html=1;deletable=0;rotatable=0;resizable=0;" parent="qZ0eZMEyJfM4uQIMgLbZ-8" vertex="1">
          <mxGeometry x="440" y="720" width="160" height="40" as="geometry" />
        </mxCell>
        <mxCell id="dIKfFOtkZAm4ROcoIMHW-11" value="" style="rounded=0;whiteSpace=wrap;html=1;deletable=0;rotatable=0;resizable=0;" parent="qZ0eZMEyJfM4uQIMgLbZ-8" vertex="1">
          <mxGeometry x="640" y="720" width="160" height="40" as="geometry" />
        </mxCell>
        <mxCell id="dnlBX8vC30w0LTZ7l3ts-7" value="" style="endArrow=block;html=1;rounded=0;strokeWidth=1;endFill=1;entryX=0;entryY=0.25;entryDx=0;entryDy=0;movable=1;cloneable=0;deletable=1;editable=1;resizable=1;rotatable=1;locked=0;connectable=1;exitX=1;exitY=0.75;exitDx=0;exitDy=0;" parent="qZ0eZMEyJfM4uQIMgLbZ-8" source="qZ0eZMEyJfM4uQIMgLbZ-16" target="qZ0eZMEyJfM4uQIMgLbZ-10" edge="1">
          <mxGeometry width="50" height="50" relative="1" as="geometry">
            <mxPoint x="640" y="400" as="sourcePoint" />
            <mxPoint x="720" y="400" as="targetPoint" />
          </mxGeometry>
        </mxCell>
      </root>
    </mxGraphModel>
  </diagram>
</mxfile>
